<svg width="727" height="762" viewBox="0 0 727 762" fill="none" xmlns="http://www.w3.org/2000/svg">
<path d="M319.296 113.554C368.434 100.781 422.844 105.977 471.966 124.314C521.227 142.649 565.27 174.194 596.4 215.272C627.6 256.419 645.82 307.308 650.062 359.251C654.305 411.194 644.71 464.329 619.352 507.68C594.064 551.099 553.223 584.801 507.638 610.968C462.122 637.065 411.933 655.695 361.536 654.841C311.139 653.986 260.466 633.717 219.828 601.649C179.121 569.651 148.45 525.993 129.352 477.549C110.253 429.105 102.796 375.943 113.478 326.903C124.16 277.863 152.981 232.945 189.533 195.042C226.016 157.211 270.09 126.397 319.296 113.554Z" fill="#0084FF"/>
<path d="M581.368 129.708C605.141 145.528 625.653 167.79 637.224 194.711C648.795 221.633 651.425 253.272 646.796 283.243C642.168 313.271 630.334 341.688 611.978 362.857C593.622 384.026 568.85 397.947 542.973 404.85C517.096 411.696 490.22 411.523 464.238 404.62C438.308 397.717 413.273 384.084 395.127 362.972C376.929 341.861 365.568 313.271 361.098 283.243C356.627 253.214 359.047 221.748 370.828 195.459C382.609 169.228 403.7 148.174 427.368 132.297C451.089 116.42 477.334 105.72 503.947 105.03C530.613 104.397 557.595 113.831 581.368 129.708Z" fill="#185AF6"/>
<path d="M175.186 353.869C162.522 346.164 151.596 335.322 145.432 322.21C139.269 309.098 137.868 293.689 140.333 279.092C142.799 264.468 149.102 250.628 158.88 240.317C168.658 230.007 181.854 223.227 195.638 219.865C209.422 216.531 223.739 216.615 237.579 219.977C251.391 223.339 264.727 229.979 274.393 240.261C284.086 250.544 290.138 264.468 292.519 279.092C294.901 293.717 293.612 309.042 287.336 321.846C281.06 334.621 269.826 344.875 257.218 352.608C244.583 360.34 230.603 365.552 216.426 365.888C202.222 366.196 187.849 361.601 175.186 353.869Z" fill="#74A7F4"/>
</svg>
