<?xml version="1.0" encoding="UTF-8"?>
<svg width="647px" height="239px" viewBox="0 0 647 239" version="1.1" xmlns="http://www.w3.org/2000/svg" xmlns:xlink="http://www.w3.org/1999/xlink">
    <!-- Generator: Sketch 52.2 (67145) - http://www.bohemiancoding.com/sketch -->
    <title>logo_black</title>
    <desc>Created with Sketch.</desc>
    <g id="logo_black" stroke="none" stroke-width="1" fill="none" fill-rule="evenodd">
        <g id="Group" transform="translate(1.000000, 1.000000)" fill="#000000">
            <path d="M4.16,112.32 C16.64,94.08 39.68,68.8 81.92,68.8 C124.16,68.8 153.92,93.44 153.92,131.84 L153.92,232 L114.24,232 L114.24,209.6 L109.76,209.6 C104.64,220.16 93.44,236.48 59.84,236.48 C24,236.48 0.32,217.28 0.32,186.88 C0.32,161.6 22.4,144 52.8,140.8 L113.6,134.08 L113.6,128.96 C113.6,114.24 102.72,101.44 80.32,101.44 C57.92,101.44 45.12,114.24 36.8,132.16 L4.16,112.32 Z M42.56,184.64 C42.56,195.52 51.84,203.2 69.76,203.2 C97.92,203.2 113.6,186.56 113.6,164.8 L113.6,160.96 L64.96,166.72 C49.92,168.64 42.56,175.36 42.56,184.64 Z M176.17,73.28 L219.69,73.28 L258.73,196.8 L262.57,196.8 L301.61,73.28 L345.13,73.28 L290.41,232 L230.89,232 L176.17,73.28 Z M369.94,112.32 C382.42,94.08 405.46,68.8 447.7,68.8 C489.94,68.8 519.7,93.44 519.7,131.84 L519.7,232 L480.02,232 L480.02,209.6 L475.54,209.6 C470.42,220.16 459.22,236.48 425.62,236.48 C389.78,236.48 366.1,217.28 366.1,186.88 C366.1,161.6 388.18,144 418.58,140.8 L479.38,134.08 L479.38,128.96 C479.38,114.24 468.5,101.44 446.1,101.44 C423.7,101.44 410.9,114.24 402.58,132.16 L369.94,112.32 Z M408.34,184.64 C408.34,195.52 417.62,203.2 435.54,203.2 C463.7,203.2 479.38,186.56 479.38,164.8 L479.38,160.96 L430.74,166.72 C415.7,168.64 408.34,175.36 408.34,184.64 Z" id="ava-copy"></path>
            <path d="M554,45.5 C554,18.6789474 573.636842,0 599.5,0 C625.363158,0 645,18.6789474 645,45.5 C645,72.3210526 625.363158,91 599.5,91 C599.302219,91 599.104802,90.9989077 598.907755,90.9967277 C588.845751,90.8854095 573.877146,90.8865002 554.001941,91 C554.062105,68.1168505 554.062105,53.1039628 554.001941,45.961337 C554.000648,45.8078279 554,45.6540482 554,45.5 Z" id="."></path>
        </g>
    </g>
</svg>