<?xml version="1.0" standalone="no"?>
<!DOCTYPE svg PUBLIC "-//W3C//DTD SVG 20010904//EN"
 "http://www.w3.org/TR/2001/REC-SVG-20010904/DTD/svg10.dtd">
<svg version="1.0" xmlns="http://www.w3.org/2000/svg"
 width="762.000000pt" height="762.000000pt" viewBox="0 0 762.000000 762.000000"
 preserveAspectRatio="xMidYMid meet">
<metadata>
Created by potrace 1.11, written by Peter Selinger 2001-2013
</metadata>
<g transform="translate(0.000000,762.000000) scale(0.100000,-0.100000)"
fill="#000000" stroke="none">
<path d="M5095 6559 c-27 -4 -61 -10 -75 -13 -14 -4 -34 -8 -45 -10 -31 -6
-116 -32 -150 -47 -16 -7 -32 -13 -35 -14 -23 -8 -47 -18 -60 -24 -15 -8 -25
-7 -65 3 -72 19 -246 58 -279 62 -21 2 -42 7 -47 9 -4 3 -40 7 -81 10 -40 2
-73 5 -73 5 0 15 -358 17 -475 3 -150 -18 -175 -21 -175 -23 0 -1 -9 -3 -20
-5 -11 -2 -33 -6 -50 -9 -16 -3 -32 -6 -35 -6 -3 0 -29 -7 -59 -16 -30 -9 -62
-17 -70 -19 -25 -6 -151 -51 -203 -74 -27 -11 -48 -17 -48 -13 0 4 -4 2 -8 -3
-4 -6 -32 -21 -62 -35 -47 -21 -172 -89 -259 -141 -14 -8 -59 -38 -100 -66
-42 -29 -84 -58 -95 -65 -10 -7 -24 -18 -30 -23 -6 -6 -29 -24 -52 -40 -108
-79 -429 -388 -519 -500 -22 -28 -45 -56 -53 -64 -23 -24 -127 -164 -183 -247
-72 -107 -75 -111 -105 -169 -15 -27 -31 -53 -36 -56 -5 -3 -10 -10 -11 -15 0
-5 -22 -54 -47 -109 -26 -55 -54 -116 -63 -136 -21 -46 -80 -221 -80 -236 0
-7 -4 -13 -9 -13 -5 0 -7 -4 -4 -8 3 -5 -1 -33 -9 -63 -17 -62 -25 -100 -30
-149 -2 -19 -5 -35 -6 -35 0 0 -3 -13 -5 -30 -22 -191 -22 -417 1 -595 2 -19
7 -55 10 -80 3 -25 11 -65 16 -90 6 -25 12 -56 14 -70 4 -30 24 -116 35 -150
4 -14 13 -45 20 -70 7 -25 15 -52 18 -60 3 -8 6 -22 8 -31 2 -9 9 -29 15 -45
7 -16 13 -31 14 -34 51 -151 211 -496 245 -530 3 -3 16 -26 30 -53 13 -26 28
-47 32 -47 5 0 8 -4 8 -10 0 -8 64 -107 97 -150 153 -199 285 -344 429 -471
100 -90 297 -230 414 -296 94 -53 230 -122 230 -116 0 3 6 1 13 -5 21 -17 200
-83 221 -81 5 0 12 -3 15 -8 9 -12 181 -58 297 -78 135 -24 205 -29 369 -29
150 0 239 7 355 28 92 16 117 21 130 26 3 1 8 2 12 1 4 0 74 19 155 43 142 43
360 126 470 180 29 14 57 26 62 26 5 0 14 6 20 14 7 8 26 18 42 21 16 4 29 11
29 16 0 5 5 9 11 9 17 0 234 127 362 211 223 149 367 266 540 442 105 107 289
334 305 376 3 9 8 18 12 21 13 10 143 253 145 270 0 3 15 41 32 85 18 44 44
118 58 165 14 47 30 99 35 115 9 32 40 183 45 225 1 14 5 43 9 65 17 122 20
179 20 375 0 216 -7 327 -27 440 -4 19 -9 51 -12 70 -3 19 -12 64 -20 100 -9
36 -18 76 -20 90 -3 14 -7 30 -9 36 -3 6 4 43 14 81 10 39 21 86 24 104 3 19
8 43 10 55 25 120 29 497 6 554 -1 3 -2 9 -1 14 3 17 -48 212 -74 279 -36 96
-130 277 -155 297 -3 3 -17 21 -30 40 -40 56 -60 80 -151 170 -97 97 -135 130
-148 130 -5 0 -11 4 -13 9 -1 4 -41 34 -88 65 -47 31 -91 61 -97 66 -7 6 -13
8 -13 5 0 -3 -33 12 -72 33 -63 33 -200 87 -248 97 -8 2 -15 4 -15 5 0 1 -9 3
-20 5 -11 2 -40 8 -65 14 -25 5 -48 7 -52 5 -4 -2 -9 -1 -12 4 -6 10 -237 11
-301 1z"/>
</g>
</svg>
